# xmcd CD database file
#
# Track frame offsets:
#	150
#	48402
#	61962
#	74543
#	97967
#
# Disc length: 1566 seconds
#
# Revision: 0
# Processed by: cddbd v1.5.2PL0 Copyright (c) Steve Scherf et al.
# Submitted via: CDex 1.51
#
DISCID=40061c05
DTITLE=Quincy Jones - Cool Jazz Collection 
DYEAR=1900
DGENRE=Jazz
TTITLE0=Walkin'
TTITLE1=The Birth of Bnd
TTITLE2=Soul Bossa Nova
TTITLE3=Killer Joe
TTITLE4=Quintessence
EXTD=
EXTT0=
EXTT1=
EXTT2=
EXTT3=
EXTT4=
PLAYORDER=
